<svg width="100" height="100" viewBox="0 0 100 100" fill="none" xmlns="http://www.w3.org/2000/svg">
  <path d="M50 95C50 95 85 70 85 40C85 15 65 5 50 5C35 5 15 15 15 40C15 70 50 95 50 95Z" fill="#166534"/>
  <path d="M50 15V85M30 30C30 30 40 25 50 25M70 30C70 30 60 25 50 25M25 45C25 45 35 40 50 40M75 45C75 45 65 40 50 40M35 65C35 65 42 60 50 60M65 65C65 65 58 60 50 60" stroke="white" stroke-width="2" stroke-linecap="round" opacity="0.6"/>
  <circle cx="30" cy="30" r="2" fill="white"/>
  <circle cx="70" cy="30" r="2" fill="white"/>
  <circle cx="25" cy="45" r="2" fill="white"/>
  <circle cx="75" cy="45" r="2" fill="white"/>
  <circle cx="35" cy="65" r="2" fill="white"/>
  <circle cx="65" cy="65" r="2" fill="white"/>
  <circle cx="50" cy="25" r="3" fill="white"/>
  <circle cx="50" cy="40" r="3" fill="white"/>
  <circle cx="50" cy="60" r="3" fill="white"/>
</svg>
